<mxfile host="app.diagrams.net" modified="2023-12-10T09:52:02.603Z" agent="Mozilla/5.0 (Windows NT 10.0; Win64; x64) AppleWebKit/537.36 (KHTML, like Gecko) Chrome/119.0.0.0 Safari/537.36 Edg/119.0.0.0" etag="1m-sNWByycUlI8tEpBWL" version="22.1.7" type="github">
  <diagram name="第 1 页" id="1wMIRgZhA3eAPInTexrf">
    <mxGraphModel dx="1042" dy="577" grid="1" gridSize="10" guides="1" tooltips="1" connect="1" arrows="1" fold="1" page="1" pageScale="1" pageWidth="827" pageHeight="1169" math="0" shadow="0">
      <root>
        <mxCell id="0" />
        <mxCell id="1" parent="0" />
        <mxCell id="1QpfjMKAaEjmd-cmzOLP-1" value="" style="rounded=0;whiteSpace=wrap;html=1;" vertex="1" parent="1">
          <mxGeometry x="234" y="70" width="230" height="380" as="geometry" />
        </mxCell>
        <mxCell id="1QpfjMKAaEjmd-cmzOLP-2" value="文件交互" style="ellipse;whiteSpace=wrap;html=1;fontFamily=宋体;fontSize=20;" vertex="1" parent="1">
          <mxGeometry x="284" y="90" width="130" height="70" as="geometry" />
        </mxCell>
        <mxCell id="1QpfjMKAaEjmd-cmzOLP-13" style="rounded=0;orthogonalLoop=1;jettySize=auto;html=1;entryX=0;entryY=0.5;entryDx=0;entryDy=0;" edge="1" parent="1" source="1QpfjMKAaEjmd-cmzOLP-3" target="1QpfjMKAaEjmd-cmzOLP-2">
          <mxGeometry relative="1" as="geometry" />
        </mxCell>
        <mxCell id="1QpfjMKAaEjmd-cmzOLP-14" style="rounded=0;orthogonalLoop=1;jettySize=auto;html=1;entryX=0;entryY=0.5;entryDx=0;entryDy=0;" edge="1" parent="1" source="1QpfjMKAaEjmd-cmzOLP-3" target="1QpfjMKAaEjmd-cmzOLP-8">
          <mxGeometry relative="1" as="geometry" />
        </mxCell>
        <mxCell id="1QpfjMKAaEjmd-cmzOLP-15" style="rounded=0;orthogonalLoop=1;jettySize=auto;html=1;entryX=0;entryY=0.5;entryDx=0;entryDy=0;" edge="1" parent="1" source="1QpfjMKAaEjmd-cmzOLP-3" target="1QpfjMKAaEjmd-cmzOLP-9">
          <mxGeometry relative="1" as="geometry" />
        </mxCell>
        <mxCell id="1QpfjMKAaEjmd-cmzOLP-16" style="rounded=0;orthogonalLoop=1;jettySize=auto;html=1;entryX=0;entryY=0.5;entryDx=0;entryDy=0;" edge="1" parent="1" source="1QpfjMKAaEjmd-cmzOLP-3" target="1QpfjMKAaEjmd-cmzOLP-12">
          <mxGeometry relative="1" as="geometry" />
        </mxCell>
        <mxCell id="1QpfjMKAaEjmd-cmzOLP-3" value="系统工程师" style="shape=umlActor;verticalLabelPosition=bottom;verticalAlign=top;html=1;fontSize=20;fontFamily=宋体;" vertex="1" parent="1">
          <mxGeometry x="100" y="260" width="30" height="60" as="geometry" />
        </mxCell>
        <mxCell id="1QpfjMKAaEjmd-cmzOLP-8" value="定义参数格式与输出格式" style="ellipse;whiteSpace=wrap;html=1;fontFamily=宋体;fontSize=20;" vertex="1" parent="1">
          <mxGeometry x="284" y="175" width="130" height="70" as="geometry" />
        </mxCell>
        <mxCell id="1QpfjMKAaEjmd-cmzOLP-9" value="选择AST解析引擎" style="ellipse;whiteSpace=wrap;html=1;fontFamily=宋体;fontSize=20;" vertex="1" parent="1">
          <mxGeometry x="284" y="260" width="130" height="70" as="geometry" />
        </mxCell>
        <mxCell id="1QpfjMKAaEjmd-cmzOLP-12" value="解析" style="ellipse;whiteSpace=wrap;html=1;fontFamily=宋体;fontSize=20;" vertex="1" parent="1">
          <mxGeometry x="284" y="345" width="130" height="70" as="geometry" />
        </mxCell>
      </root>
    </mxGraphModel>
  </diagram>
</mxfile>
